<svg xmlns="http://www.w3.org/2000/svg" xmlns:xlink="http://www.w3.org/1999/xlink" version="1.1" x="0px" y="0px" viewBox="0 0 100 125" style="enable-background:new 0 0 100 100;" xml:space="preserve"><style type="text/css">
	.st0{fill:none;stroke:#000000;stroke-width:6;stroke-linejoin:round;stroke-miterlimit:10;}
	.st1{fill:none;stroke:#000000;stroke-width:4;stroke-linejoin:round;stroke-miterlimit:10;}
	.st2{fill:none;stroke:#000000;stroke-width:4;stroke-linecap:round;stroke-linejoin:round;stroke-miterlimit:10;}
	.st3{fill:none;stroke:#000000;stroke-width:6;stroke-linecap:round;stroke-linejoin:round;stroke-miterlimit:10;}
	.st4{fill:none;stroke:#000000;stroke-width:4;stroke-miterlimit:10;}
	.st5{fill:none;stroke:#000000;stroke-width:4;stroke-linecap:round;stroke-miterlimit:10;}
	.st6{fill:none;stroke:#000000;stroke-width:8;stroke-linecap:round;stroke-linejoin:round;stroke-miterlimit:10;}
	.st7{fill:none;stroke:#231F20;stroke-width:4;stroke-miterlimit:10;}
	.st8{fill:none;stroke:#231F20;stroke-width:4;stroke-linecap:round;stroke-miterlimit:10;}
	.st9{fill:none;stroke:#000000;stroke-width:8;stroke-linejoin:round;stroke-miterlimit:10;}
	.st10{fill:none;stroke:#000000;stroke-width:8;stroke-miterlimit:10;}
	.st11{fill:none;stroke:#000000;stroke-width:4;stroke-linecap:round;stroke-miterlimit:10;stroke-dasharray:0,6;}
	.st12{fill:none;stroke:#FFFFFF;stroke-width:6;stroke-linecap:round;stroke-linejoin:round;stroke-miterlimit:10;}
	.st13{fill:#FFFFFF;}
</style><g><path d="M58,84.6c4.5,1.7,8.5,2.4,12,2.4c12.8,0,18.8-9.2,18.8-9.3c1-2.1,1.2-9.3,1.3-10.1c0-0.4-0.2-0.8-0.6-0.9l-19.3-9.3   c-0.4-0.2-0.8-0.1-1.1,0.1C65,61,61.5,66.1,60.3,68c-19.5-6.6-27.2-21.7-28.7-25c5.2-4.3,6.8-9.1,6.9-9.3c0.1-0.2,0.1-0.5,0-0.7   l-8.3-19.3c-0.2-0.4-0.5-0.6-1-0.6l-9,0.3c-0.2,0-0.3,0.1-0.5,0.2C8.6,20.5,9.9,34,10,34.6c0,0.1,0,0.2,0,0.2   c2.2,6.4,5,13.7,8.8,19.6C34.1,78,56.6,84.2,58,84.6z M20.6,15.3l8-0.3l7.9,18.3c-0.5,1.2-2.3,5.1-6.7,8.5   c-0.3,0.3-0.5,0.7-0.3,1.1c0.3,0.8,7.6,19.5,31,27.1c0.4,0.1,0.9,0,1.2-0.4c0-0.1,3.7-6.1,8.3-10.2l18.2,8.8c-0.1,3-0.5,7.4-1,8.6   c-0.1,0.1-9,13.3-28.4,5.8c0,0-0.1,0-0.1,0c-0.2-0.1-22.7-5.7-38-29.3c-3.7-5.7-6.4-12.8-8.5-19.1C11.8,33,11.3,21.4,20.6,15.3z"/><path d="M29.3,35.4c0.2,0.2,0.4,0.3,0.7,0.3c0.3,0,0.5-0.1,0.7-0.3c0.4-0.4,0.4-1,0-1.4c-4.4-4.3-7.4-14-7.4-14.1   c-0.2-0.5-0.7-0.8-1.2-0.7c-0.5,0.2-0.8,0.7-0.7,1.2C21.5,20.9,24.5,30.7,29.3,35.4z"/><path d="M82,75.3c0.1,0,0.2,0,0.3,0c0.4,0,0.8-0.3,1-0.7c0.2-0.5-0.1-1.1-0.7-1.2c-8.9-2.6-13.1-6.2-13.1-6.3   c-0.4-0.4-1-0.3-1.4,0.1c-0.4,0.4-0.3,1,0.1,1.4C68.3,68.7,72.7,72.5,82,75.3z"/></g><text x="0" y="115" fill="#000000" font-size="5px" font-weight="bold" font-family="'Helvetica Neue', Helvetica, Arial-Unicode, Arial, Sans-serif">Created by Icon Master</text><text x="0" y="120" fill="#000000" font-size="5px" font-weight="bold" font-family="'Helvetica Neue', Helvetica, Arial-Unicode, Arial, Sans-serif">from the Noun Project</text></svg>