<svg xmlns="http://www.w3.org/2000/svg" xmlns:xlink="http://www.w3.org/1999/xlink" version="1.1" x="0px" y="0px" viewBox="0 0 100 125" enable-background="new 0 0 100 100" xml:space="preserve"><g><path d="M79.5,15.5H19.7c-2.5,0-4.6,2.1-4.6,4.6v59.8c0,2.5,2.1,4.6,4.6,4.6h59.8c2.5,0,4.6-2.1,4.6-4.6V20.1   C84.1,17.6,82,15.5,79.5,15.5z M81,79.9c0,0.8-0.7,1.5-1.5,1.5H19.7c-0.8,0-1.5-0.7-1.5-1.5V20.1c0-0.8,0.7-1.5,1.5-1.5h59.8   c0.8,0,1.5,0.7,1.5,1.5V79.9z"/><path d="M49.6,24.6c-14,0-25.4,11.4-25.4,25.4s11.4,25.4,25.4,25.4C63.6,75.5,75,64.1,75,50S63.6,24.6,49.6,24.6z M49.6,72.4   c-12.3,0-22.4-10-22.4-22.4s10-22.4,22.4-22.4C61.9,27.7,72,37.7,72,50S61.9,72.4,49.6,72.4z"/><path d="M48.8,69.9c-10.1-0.7-18.3-8.8-19-18.8c0-0.4-0.4-0.7-0.8-0.7c-0.4,0-0.7,0.4-0.7,0.8c0.8,10.8,9.6,19.5,20.5,20.2   c0,0,0,0,0.1,0c0.4,0,0.7-0.3,0.8-0.7C49.6,70.3,49.2,69.9,48.8,69.9z"/><path d="M49.6,46.4c-2,0-3.7,1.6-3.7,3.7s1.6,3.7,3.7,3.7c2,0,3.7-1.6,3.7-3.7S51.6,46.4,49.6,46.4z M49.6,47.9   c0.3,0,0.6,0.1,0.9,0.2l-2.8,2.8c-0.1-0.3-0.2-0.6-0.2-0.9C47.5,48.9,48.4,47.9,49.6,47.9z M49.6,52.2c-0.3,0-0.6-0.1-0.9-0.2   l2.8-2.8c0.1,0.3,0.2,0.6,0.2,0.9C51.7,51.2,50.8,52.2,49.6,52.2z"/><path d="M39,55c2.7,0,5-2.2,5-5s-2.2-5-5-5c-2.7,0-5,2.2-5,5S36.3,55,39,55z M39,48.1c1,0,1.9,0.8,1.9,1.9s-0.8,1.9-1.9,1.9   c-1,0-1.9-0.8-1.9-1.9S38,48.1,39,48.1z"/><path d="M60.2,45.1c-2.7,0-5,2.2-5,5s2.2,5,5,5c2.7,0,5-2.2,5-5S62.9,45.1,60.2,45.1z M60.2,51.9c-1,0-1.9-0.8-1.9-1.9   s0.8-1.9,1.9-1.9c1,0,1.9,0.8,1.9,1.9S61.2,51.9,60.2,51.9z"/></g><text x="0" y="115" fill="#000000" font-size="5px" font-weight="bold" font-family="'Helvetica Neue', Helvetica, Arial-Unicode, Arial, Sans-serif">Created by Anton Scherbik</text><text x="0" y="120" fill="#000000" font-size="5px" font-weight="bold" font-family="'Helvetica Neue', Helvetica, Arial-Unicode, Arial, Sans-serif">from the Noun Project</text></svg>