<svg xmlns="http://www.w3.org/2000/svg" xmlns:xlink="http://www.w3.org/1999/xlink" version="1.1" x="0px" y="0px" viewBox="0 0 100 125" enable-background="new 0 0 100 100" xml:space="preserve"><g><path fill="#000000" d="M84.3740234,71.4008789V21.5820312c0-0.4140625-0.3359375-0.75-0.75-0.75H33.8051758   c-0.4140625,0-0.75,0.3359375-0.75,0.75v24.4029541L16.0957031,52.8125   c-0.0020752,0.0008545-0.0032959,0.0026245-0.0053101,0.003479c-0.069397,0.0286255-0.1276245,0.0745239-0.1846924,0.121582   c-0.0184937,0.0152588-0.0431519,0.0236816-0.0599365,0.0404663c-0.0032349,0.0032349-0.0045776,0.0081177-0.0077515,0.0114136   c-0.0639648,0.0664673-0.1169434,0.1422119-0.1524658,0.2260132c-0.005188,0.0122681-0.0039062,0.0270996-0.0084229,0.0396729   c-0.0287476,0.0793457-0.0493774,0.1618042-0.0500488,0.2476196c0,0.0019531-0.0010986,0.0036011-0.0010986,0.0055542V78.404541   v0.0018311v0.0115967c0,0.046814,0.0184326,0.0875244,0.0266724,0.131958   c0.0089722,0.0496826,0.0079346,0.0996704,0.0275269,0.1483154c0.0009155,0.0023193,0.0027466,0.0039062,0.0036621,0.0061646   c0.0046997,0.0114136,0.0132446,0.0201416,0.0185547,0.031311c0.0335693,0.071106,0.0762939,0.1341553,0.1275024,0.1891479   c0.0175781,0.0189209,0.0369873,0.0338135,0.0563965,0.0507812c0.0484009,0.0423584,0.1000977,0.0775146,0.1571045,0.105957   c0.0239868,0.012085,0.0464478,0.0241699,0.0717773,0.0336914c0.0834351,0.031189,0.1702881,0.0526733,0.2608032,0.0526733   h58.9448242l0.0002441-0.000061l0.0002441,0.000061c0.0925903,0,0.1842651-0.0205078,0.2723389-0.0551147   c0.0344849-0.0135498,0.0621948-0.0360718,0.0939941-0.0543823c0.0392456-0.0224609,0.0812988-0.0374756,0.1170654-0.067749   l8.3032227-7.0170898c0.0075684-0.0064087,0.0103149-0.0164795,0.0176392-0.0231323   c0.0547485-0.0499878,0.095459-0.1106567,0.1335449-0.1747437c0.0147095-0.0248413,0.0360718-0.0445557,0.0477905-0.0709229   C84.3485718,71.6115112,84.3740234,71.5096436,84.3740234,71.4008789z M17.1259766,54.2583008h12.3720703v18.0679932   L17.1259766,77.307373V54.2583008z M33.0551758,54.2583008V70.894165l-2.0571289,0.8282471V54.2583008H33.0551758z    M57.9643555,54.2583008v16.3925781H46.3178711V54.2583008H57.9643555z M74.5708008,54.2583008v16.3925781H61.6376953V54.2583008   H74.5708008z M60.1376953,70.6508789h-0.6733398V54.2583008h0.6733398V70.6508789z M44.8178711,70.6508789H34.5551758V54.2583008   h10.2626953V70.6508789z M29.4980469,73.9436035v3.7243652h-9.2506714L29.4980469,73.9436035z M30.9980469,73.3396606   l2.9527588-1.1887817h10.8670654v5.5170898H30.9980469V73.3396606z M46.3178711,72.1508789h12.3964844h1.4233398v5.5170898   H46.3178711V72.1508789z M61.6376953,72.1508789h12.9331055v5.5170898H61.6376953V72.1508789z M76.0708008,72.1508789h5.5038452   l-5.5038452,4.6515503V72.1508789z M76.0708008,70.6508789V53.8562012l6.8032227-5.7490845v22.5437622H76.0708008z    M82.8740234,22.3320312v23.8117676l-7.8273315,6.614502H59.4643555V22.3320312H82.8740234z M57.9643555,22.3320312v30.4262695   H34.5551758v-6.2528687c0,0,0-0.001709,0-0.0025024V22.3320312H57.9643555z M33.0551758,52.7583008H20.2476196   l12.8075562-5.1560059V52.7583008z"/><path fill="#000000" d="M55.5991211,50.1757812c0.4140625,0,0.75-0.3359375,0.75-0.75v-3.9311523   c0-0.4140625-0.3359375-0.75-0.75-0.75s-0.75,0.3359375-0.75,0.75v3.9311523   C54.8491211,49.8398438,55.1850586,50.1757812,55.5991211,50.1757812z"/><path fill="#000000" d="M62,50.1757812c0.4140625,0,0.75-0.3359375,0.75-0.75v-3.9311523c0-0.4140625-0.3359375-0.75-0.75-0.75   s-0.75,0.3359375-0.75,0.75v3.9311523C61.25,49.8398438,61.5859375,50.1757812,62,50.1757812z"/></g><text x="0" y="115" fill="#000000" font-size="5px" font-weight="bold" font-family="'Helvetica Neue', Helvetica, Arial-Unicode, Arial, Sans-serif">Created by ILKEBRS</text><text x="0" y="120" fill="#000000" font-size="5px" font-weight="bold" font-family="'Helvetica Neue', Helvetica, Arial-Unicode, Arial, Sans-serif">from the Noun Project</text></svg>