<svg xmlns="http://www.w3.org/2000/svg" xmlns:xlink="http://www.w3.org/1999/xlink" version="1.1" x="0px" y="0px" viewBox="0 0 64 80" style="enable-background:new 0 0 64 64;" xml:space="preserve"><g><path d="M1,6v34c0,2.757,2.243,5,5,5h9v16c0,1.103,0.897,2,2,2h4c1.103,0,2-0.897,2-2V44v-1v-6h-2v2h-2V7h2v28h2V1H6   C3.243,1,1,3.243,1,6z M17,61V49h4l0.001,12H17z M17,47v-2h4l0,2H17z M17,39H8c-0.551,0-1-0.448-1-1V8c0-0.552,0.449-1,1-1h9V39z    M21,5H8C6.346,5,5,6.346,5,8v30c0,1.654,1.346,3,3,3h13v2h-5h-1H6c-1.654,0-3-1.346-3-3V6c0-1.654,1.346-3,3-3h15V5z"/><path d="M57,51H45c-1.103,0-2,0.897-2,2v6h16v-6C59,51.897,58.103,51,57,51z M57,57H45v-4h12V57z"/><path d="M60.969,48H61v-8.48l-4.503-3.603L59.414,33l-4-4l4-4l-4-4l4-4l-4-4l1.633-1.633L55.895,1H41v47h0.031   C39.806,48.912,39,50.359,39,52v8c0,1.654,1.346,3,3,3h18c1.654,0,3-1.346,3-3v-8C63,50.359,62.194,48.912,60.969,48z M43,3h11.105   l0.848,7.633L52.586,13l4,4l-4,4l4,4l-4,4l4,4l-3.083,3.083L59,40.48v6.621C58.677,47.035,58.342,47,58,47H44   c-0.342,0-0.677,0.035-1,0.101V3z M61,60c0,0.552-0.449,1-1,1H42c-0.551,0-1-0.448-1-1v-8c0-1.654,1.346-3,3-3h14   c1.654,0,3,1.346,3,3V60z"/><rect x="45" y="5" width="2" height="2"/></g><text x="0" y="79" fill="#000000" font-size="5px" font-weight="bold" font-family="'Helvetica Neue', Helvetica, Arial-Unicode, Arial, Sans-serif">Created by Eucalyp</text><text x="0" y="84" fill="#000000" font-size="5px" font-weight="bold" font-family="'Helvetica Neue', Helvetica, Arial-Unicode, Arial, Sans-serif">from the Noun Project</text></svg>