<svg xmlns="http://www.w3.org/2000/svg" xmlns:xlink="http://www.w3.org/1999/xlink" version="1.1" x="0px" y="0px" viewBox="0 0 512 640" enable-background="new 0 0 512 512" xml:space="preserve"><g><path d="M141.4,162.4c2.4,59.2,49.8,142.8,114.6,142.8c63.7,0,110.6-80.8,114.4-139.8c17.2-0.3,24.9-8.4,28.4-17.8   c3.6-9.7,3.5-23.8-13.5-35.2C375.3,49.1,320.5,2,256,2S136.7,49.1,126.7,112.3c-1.7,1.1-15.8,9.8-11.7,27.6   C119.9,161.5,142.9,162.7,141.4,162.4z M256,288.8c-49.9,0-94.3-67.3-98-123.8c31.8,4.4,67.4,6.4,102.5,6.4   c32.7,0,64.9-1.6,93.3-4.3C349.3,223.1,305.3,288.8,256,288.8z M288.8,23.2V43c0,18.1-14.7,32.8-32.8,32.8S223.2,61,223.2,43V23.2   c10.4-3.1,21.4-4.8,32.8-4.8C267.4,18.4,278.4,20.1,288.8,23.2z M141.6,124.4c0,0,3.7-66.4,65.3-94.8V43   c0,27.1,22.1,49.2,49.2,49.2s49.2-22.1,49.2-49.2V29.6c63,32.2,65.3,94.8,65.3,94.8s6.9,0.3,11,6c7.1,9.8-0.6,17.2-5.8,17.8   c-65.9,8.2-164,10.6-234.8-2.5c-6-1.1-9.4-5.7-9.9-9.4C129.2,125.4,141.6,124.4,141.6,124.4z"/><path d="M341.3,276.5c0,0-36.4,45-85.3,45c-49.8,0-85.3-45-85.3-45s-92.9,35.3-95,143.3V510h360.5v-90.1   C436.3,312.9,341.3,276.5,341.3,276.5z M354.3,428.1v65.5H157.7v-65.5H354.3z M256,337.9c28.5,0,57.1-12.3,81.9-34.8v108.6H174.1   V303.1C198.9,325.6,227.5,337.9,256,337.9z M92.1,419.9c0-48,25.3-92.7,65.5-117.9v109.8h-16.4v81.9H92.1V419.9z M419.9,493.6   h-49.2v-81.9h-16.4V301.9c40.3,25.3,65.5,69.9,65.5,117.9V493.6z"/><rect x="182.3" y="444.5" width="16.4" height="16.4"/><rect x="313.4" y="444.5" width="16.4" height="16.4"/></g><text x="0" y="527" fill="#000000" font-size="5px" font-weight="bold" font-family="'Helvetica Neue', Helvetica, Arial-Unicode, Arial, Sans-serif">Created by Icon Fair</text><text x="0" y="532" fill="#000000" font-size="5px" font-weight="bold" font-family="'Helvetica Neue', Helvetica, Arial-Unicode, Arial, Sans-serif">from the Noun Project</text></svg>