<svg xmlns:x="http://ns.adobe.com/Extensibility/1.0/" xmlns:i="http://ns.adobe.com/AdobeIllustrator/10.0/" xmlns:graph="http://ns.adobe.com/Graphs/1.0/" xmlns="http://www.w3.org/2000/svg" xmlns:xlink="http://www.w3.org/1999/xlink" xmlns:a="http://ns.adobe.com/AdobeSVGViewerExtensions/3.0/" version="1.1" x="0px" y="0px" viewBox="0 0 100 125" enable-background="new 0 0 100 100" xml:space="preserve"><path d="M5.437,55.587l13.504,8.622c-1.785,4.568-2.689,9.376-2.689,14.32V91c0,1.104,0.896,2,2,2H93.16c1.104,0,2-0.896,2-2V78.529  c0-7.834-2.273-15.346-6.59-21.824c4.471-5.725,6.917-12.788,6.917-20.06C95.487,18.645,80.843,4,62.843,4  c-18,0-32.644,14.645-32.644,32.646c0,3.562,0.576,7.06,1.713,10.42c-1.533,1.16-2.977,2.425-4.313,3.78l-13.177-8.395  c-0.903-0.575-2.1-0.337-2.713,0.54l-6.835,9.763c-0.313,0.447-0.43,1.001-0.324,1.536C4.658,54.826,4.978,55.294,5.437,55.587z   M13.889,46.854l12.955,8.253c0.824,0.523,1.905,0.378,2.559-0.346c1.788-1.979,3.824-3.77,6.051-5.325  c0.758-0.529,1.055-1.509,0.717-2.37c-1.308-3.335-1.971-6.841-1.971-10.421C34.199,20.85,47.049,8,62.843,8  c15.794,0,28.644,12.85,28.644,28.646c0,6.833-2.463,13.458-6.937,18.655c-0.604,0.702-0.647,1.727-0.104,2.477  c4.392,6.071,6.714,13.247,6.714,20.751V89H20.252V78.529c0-4.961,1.013-9.771,3.01-14.295c0,0,0-0.001,0.001-0.001  c0.455-1.033,0.969-2.061,1.528-3.055c0.541-0.963,0.199-2.182-0.764-2.724c-0.964-0.54-2.182-0.199-2.724,0.764  c-0.242,0.431-0.469,0.87-0.695,1.31l-11.26-7.189L13.889,46.854z"/><path d="M43.174,45.362c4.005-1.517,8.222-2.287,12.532-2.287c0.594,0,1.184,0.018,1.771,0.047c0.767,0.033,1.506-0.377,1.869-1.066  c0.362-0.689,0.292-1.525-0.18-2.144c-0.502-0.658-0.767-1.438-0.767-2.257c0-2.058,1.675-3.732,3.733-3.732  s3.733,1.674,3.733,3.732c0,1.213-0.597,2.355-1.596,3.057c-0.636,0.446-0.956,1.22-0.821,1.985  c0.135,0.765,0.702,1.382,1.452,1.583c4.824,1.293,9.247,3.557,13.147,6.727c0.371,0.302,0.817,0.448,1.261,0.448  c0.581,0,1.158-0.252,1.553-0.738c0.697-0.857,0.567-2.117-0.29-2.813c-3.521-2.863-7.428-5.062-11.646-6.559  c0.609-1.118,0.941-2.384,0.941-3.69c0-4.264-3.469-7.732-7.733-7.732s-7.733,3.469-7.733,7.732c0,0.487,0.045,0.968,0.133,1.438  c-4.388,0.128-8.68,0.978-12.775,2.529c-1.033,0.391-1.553,1.546-1.162,2.579C40.987,45.233,42.141,45.754,43.174,45.362z"/><text x="0" y="115" fill="#000000" font-size="5px" font-weight="bold" font-family="'Helvetica Neue', Helvetica, Arial-Unicode, Arial, Sans-serif">Created by Lemon Liu</text><text x="0" y="120" fill="#000000" font-size="5px" font-weight="bold" font-family="'Helvetica Neue', Helvetica, Arial-Unicode, Arial, Sans-serif">from the Noun Project</text></svg>