<svg xmlns="http://www.w3.org/2000/svg" xmlns:xlink="http://www.w3.org/1999/xlink" version="1.1" x="0px" y="0px" viewBox="0 0 64 80" style="enable-background:new 0 0 64 64;" xml:space="preserve"><path d="M3,28h24c0.552,0,1-0.447,1-1V3c0-0.553-0.448-1-1-1H3C2.448,2,2,2.447,2,3v24C2,27.553,2.448,28,3,28z M4,26v-4h22v4H4z   M26,16v4H4v-4H26z M4,14v-4h22v4H4z M26,4v4H4V4H26z"/><path d="M56,3c0-0.553-0.448-1-1-1H31c-0.552,0-1,0.447-1,1v24c0,0.553,0.448,1,1,1h24c0.552,0,1-0.447,1-1V3z M44,4h4v22h-4V4z   M42,26h-4V4h4V26z M32,4h4v22h-4V4z M54,26h-4V4h4V26z"/><path d="M3,56h24c0.552,0,1-0.447,1-1V31c0-0.553-0.448-1-1-1H3c-0.552,0-1,0.447-1,1v24C2,55.553,2.448,56,3,56z M14,54h-4V32h4V54  z M16,32h4v22h-4V32z M26,54h-4V32h4V54z M4,32h4v22H4V32z"/><path d="M60,45.586V41v-6c0-0.553-0.448-1-1-1H35c-0.552,0-1,0.447-1,1v6v18c0,0.553,0.448,1,1,1h12v2h2v-2v-2V42  c0-0.221,0.086-0.416,0.209-0.581c0.383-0.507,1.2-0.507,1.583,0C50.914,41.584,51,41.779,51,42v4c0,0.553,0.448,1,1,1h6.586  L60,48.414v5.172l-1.54,1.54l-2.776,0.926C55.275,56.188,55,56.569,55,57v5h2v-4.279l2.316-0.772  c0.147-0.049,0.281-0.132,0.391-0.241l2-2C61.895,54.52,62,54.266,62,54v-6c0-0.266-0.105-0.52-0.293-0.707L60,45.586z M36,36h22v4  h-5.775c-0.006-0.007-0.015-0.012-0.021-0.019c-0.124-0.135-0.26-0.257-0.407-0.368c-0.017-0.013-0.032-0.028-0.05-0.041  c-0.156-0.113-0.323-0.21-0.5-0.292c-0.011-0.005-0.02-0.012-0.031-0.017c-0.177-0.079-0.363-0.141-0.557-0.185  c-0.012-0.003-0.022-0.008-0.034-0.011C50.423,39.025,50.215,39,50,39s-0.423,0.025-0.625,0.068  c-0.012,0.003-0.023,0.008-0.034,0.011c-0.193,0.044-0.379,0.105-0.557,0.185c-0.011,0.005-0.021,0.012-0.032,0.017  c-0.177,0.081-0.343,0.179-0.5,0.292c-0.017,0.013-0.033,0.028-0.05,0.041c-0.147,0.111-0.283,0.233-0.407,0.368  c-0.006,0.007-0.015,0.012-0.021,0.019H36V36z M47,52H36v-4h11V52z M47,46H36v-4h11V46z M36,58v-4h11v4H36z M53,42h5v3h-5V42z"/><rect x="30" y="30" width="2" height="2"/><rect x="36" y="30" width="2" height="2"/><rect x="42" y="30" width="2" height="2"/><rect x="30" y="36" width="2" height="2"/><rect x="30" y="42" width="2" height="2"/><rect x="48" y="30" width="2" height="2"/><rect x="54" y="30" width="2" height="2"/><rect x="30" y="48" width="2" height="2"/><rect x="30" y="55" width="2" height="2"/><text x="0" y="79" fill="#000000" font-size="5px" font-weight="bold" font-family="'Helvetica Neue', Helvetica, Arial-Unicode, Arial, Sans-serif">Created by Becris</text><text x="0" y="84" fill="#000000" font-size="5px" font-weight="bold" font-family="'Helvetica Neue', Helvetica, Arial-Unicode, Arial, Sans-serif">from the Noun Project</text></svg>