<svg xmlns="http://www.w3.org/2000/svg" xmlns:xlink="http://www.w3.org/1999/xlink" xml:space="preserve" version="1.1" style="shape-rendering:geometricPrecision;text-rendering:geometricPrecision;image-rendering:optimizeQuality;" viewBox="0 0 1.138 1.4224999999999999" x="0px" y="0px" fill-rule="evenodd" clip-rule="evenodd"><defs><style type="text/css">
   
    .fil0 {fill:none}
    .fil1 {fill:black;fill-rule:nonzero}
   
  </style></defs><g><g><rect class="fil0" transform="matrix(1.58877E-14 -0.599884 0.599884 1.58877E-14 -7.90159E-09 1.13784)" width="1.897" height="1.897"/><path class="fil1" d="M0.775 0.072l0.02 0.02c0.011,-0.008 0.024,-0.015 0.037,-0.021 0.018,-0.007 0.037,-0.011 0.058,-0.011 0.043,0 0.082,0.018 0.11,0.046l0.001 0.001c0.028,0.028 0.045,0.067 0.045,0.109l0 0.303 0.028 0c0.017,0 0.033,0.007 0.045,0.019l0 0c0.012,0.011 0.019,0.027 0.019,0.045 0,0.018 -0.007,0.034 -0.019,0.045 -0.012,0.012 -0.028,0.019 -0.045,0.019l-0.028 0 0 0.165c0,0.056 -0.023,0.106 -0.059,0.143 -0.03,0.03 -0.069,0.05 -0.112,0.057l0.041 0.073 -0.042 0 -0.04 -0.071 -0.53 0 -0.041 0.071 -0.042 0 0.042 -0.073c-0.043,-0.007 -0.082,-0.027 -0.112,-0.057 -0.037,-0.037 -0.059,-0.087 -0.059,-0.143l0 -0.165 -0.028 0c-0.017,0 -0.034,-0.007 -0.045,-0.019 -0.012,-0.011 -0.019,-0.027 -0.019,-0.045 0,-0.018 0.007,-0.034 0.019,-0.045l0 0c0.012,-0.012 0.028,-0.019 0.045,-0.019l0.945 0 0 -0.303c0,-0.032 -0.013,-0.062 -0.034,-0.083l-0.001 -0.001c-0.021,-0.022 -0.051,-0.035 -0.084,-0.035 -0.016,0 -0.031,0.003 -0.045,0.008 -0.008,0.004 -0.016,0.008 -0.024,0.014l0.019 0.018c0.012,0.012 0.019,0.029 0.019,0.045 0,0.017 -0.007,0.033 -0.019,0.046l-0.033 0.032c-0.007,0.007 -0.018,0.007 -0.026,0l-0.129 -0.13c-0.008,-0.007 -0.008,-0.018 0,-0.026l0.032 -0.032c0.013,-0.013 0.029,-0.019 0.045,-0.019 0.017,0 0.033,0.006 0.046,0.019l0 0zm0.147 0.719c0,-0.01 0.008,-0.019 0.018,-0.019 0.01,0 0.018,0.009 0.018,0.019 0,0.036 -0.014,0.069 -0.038,0.093 -0.024,0.024 -0.057,0.038 -0.093,0.038 -0.01,0 -0.019,-0.008 -0.019,-0.018 0,-0.01 0.009,-0.018 0.019,-0.018 0.026,0 0.05,-0.011 0.067,-0.028 0.017,-0.017 0.028,-0.041 0.028,-0.067zm0.152 -0.235l-1.01 0c-0.007,0 -0.014,0.003 -0.019,0.008l0 0c-0.005,0.005 -0.008,0.011 -0.008,0.019 0,0.008 0.003,0.014 0.008,0.019 0.005,0.005 0.012,0.009 0.019,0.009l0.046 0 0.918 0 0.046 0c0.007,0 0.014,-0.004 0.019,-0.009 0.005,-0.005 0.008,-0.011 0.008,-0.019 0,-0.008 -0.003,-0.014 -0.008,-0.019l0 0c-0.005,-0.005 -0.012,-0.008 -0.019,-0.008zm-0.065 0.091l-0.881 0 0 0.165c0,0.046 0.019,0.087 0.049,0.117 0.03,0.03 0.071,0.049 0.117,0.049l0.55 0c0.046,0 0.087,-0.019 0.117,-0.049 0.03,-0.03 0.048,-0.071 0.048,-0.117l0 -0.165zm-0.396 -0.322c-0.008,0.007 -0.019,0.007 -0.026,0 -0.007,-0.007 -0.007,-0.019 0,-0.026l0.065 -0.065c0.007,-0.007 0.018,-0.007 0.026,0 0.007,0.007 0.007,0.019 0,0.026l-0.065 0.065zm0.065 0.065c-0.008,0.007 -0.019,0.007 -0.026,0 -0.008,-0.007 -0.008,-0.019 0,-0.026l0.064 -0.065c0.008,-0.007 0.019,-0.007 0.026,0 0.008,0.007 0.008,0.019 0,0.026l-0.064 0.065zm-0.13 -0.13c-0.007,0.007 -0.019,0.007 -0.026,0 -0.007,-0.007 -0.007,-0.019 0,-0.026l0.065 -0.065c0.007,-0.007 0.018,-0.007 0.026,0 0.007,0.007 0.007,0.019 0,0.026l-0.065 0.065zm0.266 -0.097l-0.065 -0.065c-0.005,-0.005 -0.012,-0.008 -0.02,-0.008 -0.007,0 -0.014,0.003 -0.019,0.008l-0.019 0.019 0.103 0.104 0.02 -0.019c0.005,-0.006 0.008,-0.013 0.008,-0.02 0,-0.007 -0.003,-0.014 -0.008,-0.019z"/></g></g><text x="0" y="16.137999999999998" fill="#000000" font-size="5px" font-weight="bold" font-family="'Helvetica Neue', Helvetica, Arial-Unicode, Arial, Sans-serif">Created by Deemak Daksina S</text><text x="0" y="21.137999999999998" fill="#000000" font-size="5px" font-weight="bold" font-family="'Helvetica Neue', Helvetica, Arial-Unicode, Arial, Sans-serif">from the Noun Project</text></svg>