<svg xmlns="http://www.w3.org/2000/svg" xmlns:xlink="http://www.w3.org/1999/xlink" version="1.1" x="0px" y="0px" viewBox="0 0 100 125" style="enable-background:new 0 0 100 100;" xml:space="preserve"><g><path d="M8.3,48.5l7.7-6.6V88h68V48c0-1.1-0.9-2-2-2s-2,0.9-2,2v36H66V45H34v39H20V38.5l30-25.8l41.7,35.9c0.4,0.3,0.8,0.5,1.3,0.5   c0.6,0,1.1-0.2,1.5-0.7c0.7-0.8,0.6-2.1-0.2-2.8L50,7.4L5.7,45.5c-0.8,0.7-0.9,2-0.2,2.8C6.2,49.1,7.5,49.2,8.3,48.5z M38,49h24v35   H44V55h14c1.1,0,2-0.9,2-2s-0.9-2-2-2H40v33h-2V49z"/></g><text x="0" y="115" fill="#000000" font-size="5px" font-weight="bold" font-family="'Helvetica Neue', Helvetica, Arial-Unicode, Arial, Sans-serif">Created by Trident</text><text x="0" y="120" fill="#000000" font-size="5px" font-weight="bold" font-family="'Helvetica Neue', Helvetica, Arial-Unicode, Arial, Sans-serif">from the Noun Project</text></svg>