<svg xmlns="http://www.w3.org/2000/svg" xmlns:xlink="http://www.w3.org/1999/xlink" viewBox="0 0 100 125" version="1.1" x="0px" y="0px"><title>Home 16.2</title><desc>Created with Sketch.</desc><g stroke="none" stroke-width="1" fill="none" fill-rule="evenodd"><g fill-rule="nonzero" fill="#000000"><path d="M36.5098944,72 L63.4901056,72 C63.7746156,72 64,71.776418 64,71.5006155 L64,47.995457 C64,47.4552629 64.4477153,47 65,47 C65.5561352,47 66,47.4445658 66,47.9929654 L66,73.0070346 C66,73.5538914 65.5555144,74 65.0072136,74 L34.9927864,74 C34.4523621,74 34,73.5554342 34,73.0070346 L34,47.9929654 C34,47.4461086 34.4477153,47 35,47 C35.5561352,47 36,47.4456813 36,47.995457 L36,71.5006155 C36,71.7838736 36.2282875,72 36.5098944,72 Z M70.5883077,48.0349216 L50.3609255,28.7269659 C50.1592738,28.5344802 49.8384081,28.5366928 49.6390745,28.7269659 L29.4116923,48.0349216 C29.0082471,48.4200284 28.3813392,48.3994982 28,48 C27.6160021,47.5977165 27.6360222,46.9649873 28.0387779,46.5805387 L49.2707463,26.3136597 C49.6792403,25.9237337 50.326498,25.9292111 50.7292537,26.3136597 L71.9612221,46.5805387 C72.369716,46.9704647 72.3813392,47.6005018 72,48 C71.6160021,48.4022835 70.9866246,48.4151332 70.5883077,48.0349216 Z"/></g></g><text x="0" y="115" fill="#000000" font-size="5px" font-weight="bold" font-family="'Helvetica Neue', Helvetica, Arial-Unicode, Arial, Sans-serif">Created by Landan Lloyd</text><text x="0" y="120" fill="#000000" font-size="5px" font-weight="bold" font-family="'Helvetica Neue', Helvetica, Arial-Unicode, Arial, Sans-serif">from the Noun Project</text></svg>