<svg xmlns="http://www.w3.org/2000/svg" xmlns:xlink="http://www.w3.org/1999/xlink" version="1.1" x="0px" y="0px" viewBox="0 0 100 125" enable-background="new 0 0 100 100" xml:space="preserve"><path d="M84.681,83.641c-0.434,0-0.821-0.305-0.908-0.748L77.095,49.17c-0.099-0.503,0.228-0.99,0.73-1.09  c0.501-0.099,0.989,0.228,1.091,0.729l6.676,33.724c0.1,0.502-0.227,0.99-0.729,1.089C84.802,83.635,84.74,83.641,84.681,83.641z   M45.85,83.641c-0.06,0-0.12-0.006-0.181-0.019c-0.502-0.099-0.829-0.587-0.729-1.089l6.677-33.724  c0.1-0.502,0.589-0.828,1.09-0.729c0.503,0.1,0.829,0.587,0.729,1.09l-6.676,33.723C46.672,83.336,46.284,83.641,45.85,83.641z   M74.479,83.641c-0.483,0-0.89-0.374-0.924-0.862l-2.351-33.724c-0.035-0.512,0.351-0.954,0.861-0.99  c0.514-0.035,0.954,0.351,0.989,0.861l2.35,33.723c0.035,0.511-0.35,0.955-0.86,0.99C74.522,83.64,74.499,83.641,74.479,83.641z   M56.053,83.641c-0.021,0-0.043-0.001-0.065-0.002c-0.511-0.035-0.896-0.479-0.86-0.99l2.349-33.723  c0.036-0.511,0.479-0.896,0.99-0.861c0.511,0.036,0.896,0.479,0.86,0.99l-2.349,33.724C56.943,83.267,56.536,83.641,56.053,83.641z   M65.266,83.641c-0.512,0-0.927-0.415-0.927-0.927V48.99c0-0.513,0.415-0.928,0.927-0.928c0.513,0,0.928,0.415,0.928,0.928v33.724  C66.193,83.226,65.778,83.641,65.266,83.641z M16.098,98.216c-0.731,0-1.323-0.592-1.323-1.321V29.273  c-0.047-0.934-0.502-12.986,7.129-21.071c4.397-4.658,10.566-7.02,18.335-7.02c8.858,0,15.706,2.414,20.347,7.174  c5.043,5.17,5.948,11.553,6.106,14.048c10.657,0.669,19.123,9.552,19.123,20.375c0,0.731-0.594,1.322-1.323,1.322H46.308  c-0.73,0-1.322-0.591-1.322-1.322c0-10.798,8.427-19.666,19.051-20.37c-0.175-2.234-1.047-7.82-5.368-12.232  C54.543,5.963,48.342,3.827,40.24,3.827c-7.006,0-12.523,2.079-16.401,6.178c-6.992,7.393-6.428,19.042-6.421,19.158  c0.001,0.024,0.002,0.05,0.002,0.075v67.657C17.42,97.624,16.828,98.216,16.098,98.216z M47.679,41.458h35.443  C82.442,32.274,74.754,25.01,65.4,25.01S48.357,32.274,47.679,41.458z"/><text x="0" y="115" fill="#000000" font-size="5px" font-weight="bold" font-family="'Helvetica Neue', Helvetica, Arial-Unicode, Arial, Sans-serif">Created by ranjit kumar</text><text x="0" y="120" fill="#000000" font-size="5px" font-weight="bold" font-family="'Helvetica Neue', Helvetica, Arial-Unicode, Arial, Sans-serif">from the Noun Project</text></svg>