<svg xmlns="http://www.w3.org/2000/svg" xmlns:xlink="http://www.w3.org/1999/xlink" version="1.1" x="0px" y="0px" viewBox="0 0 100 125" enable-background="new 0 0 100 100" xml:space="preserve"><path d="M88,32.2V20.8c0-1.6-1.3-2.9-2.9-2.9c-1.6,0-2.9,1.3-2.9,2.9v4.6L69.6,12.9c-1.1-1.1-3-1.1-4.1,0l0,0  c-1.1,1.1-1.1,3,0,4.1L78,29.5h-4.6c-1.6,0-2.9,1.3-2.9,2.9v0c0,1.6,1.3,2.9,2.9,2.9h11.5c0.8,0.1,1.7-0.2,2.3-0.8l0,0  C87.8,33.9,88.1,33.1,88,32.2z"/><path d="M88,67.5c0-0.3,0-0.5-0.1-0.7c-0.3-1.3-1.5-2.2-2.8-2.2c0,0,0,0,0,0H70.5V50c0,0,0,0,0,0c0-0.3,0-0.5-0.1-0.7  c-0.3-1.3-1.5-2.2-2.8-2.2c0,0,0,0,0,0H52.9V32.5l0,0v0c0-0.3,0-0.5-0.1-0.7c-0.3-1.3-1.5-2.2-2.8-2.2c0,0,0,0,0,0H35.4V14.9l0,0v0  c0-0.3,0-0.5-0.1-0.7C35,12.9,33.8,12,32.5,12c0,0,0,0,0,0H14.9c-1.6,0-2.9,1.3-2.9,2.9v0c0,1.6,1.3,2.9,2.9,2.9h14.6v14.6l0,0v0  c0,0.3,0,0.5,0.1,0.7c0.3,1.3,1.5,2.2,2.8,2.2c0,0,0,0,0,0h14.6V50l0,0c0,0.3,0,0.5,0.1,0.7c0.3,1.3,1.5,2.2,2.8,2.2c0,0,0,0,0,0  h14.6v14.6c0,0,0,0,0,0c0,1.6,1.3,2.9,2.9,2.9h14.6v14.6c0,1.6,1.3,2.9,2.9,2.9c1.6,0,2.9-1.3,2.9-2.9L88,67.5  C88,67.5,88,67.5,88,67.5z"/><text x="0" y="115" fill="#000000" font-size="5px" font-weight="bold" font-family="'Helvetica Neue', Helvetica, Arial-Unicode, Arial, Sans-serif">Created by Dominik Minet</text><text x="0" y="120" fill="#000000" font-size="5px" font-weight="bold" font-family="'Helvetica Neue', Helvetica, Arial-Unicode, Arial, Sans-serif">from the Noun Project</text></svg>