<svg xmlns="http://www.w3.org/2000/svg" viewBox="0 0 60 75" x="0px" y="0px"><title>Bathroom Objects - Outline - 004 - Bubble Bath</title><g data-name="01-Toilet Front"><path d="M57,30c1-4.81.23-9.15-2.24-12.23A9.94,9.94,0,0,0,47,14a13,13,0,0,0-6.15,1.51,1,1,0,0,0-.14-.22c-1.85-1.85-5.31-2.25-8.41-1a6.63,6.63,0,0,0-4.13,4.33,6.21,6.21,0,0,0-5.62,1.88,6.59,6.59,0,0,0-2,4,7.15,7.15,0,0,0-6.93.19A5.44,5.44,0,0,0,10.75,30H3a3,3,0,0,0,0,6H3c.27,7.28,3.39,15,8.06,17.29a4,4,0,1,0,6.37.71H42.56A4,4,0,0,0,42,56a4,4,0,1,0,6.92-2.71C53.59,51,56.71,43.28,57,36h0a3,3,0,0,0,0-6ZM14.65,26.42a5,5,0,0,1,6.57,1.2,1,1,0,0,0,1.68-1.07A4.06,4.06,0,0,1,24,22a4.06,4.06,0,0,1,4.6-1.06A1,1,0,0,0,30,20c0-2.31,2.14-3.44,3.06-3.82,2.22-.92,4.79-.73,6.09.42a9,9,0,0,0-3.1,4.09,1,1,0,1,0,1.9.63C38.82,18.7,42.44,16,47,16a7.85,7.85,0,0,1,6.22,3C55.34,21.66,56,25.49,55,29.78A1,1,0,0,0,55,30H12.75A3.44,3.44,0,0,1,14.65,26.42ZM16,56a2,2,0,1,1-2-2A2,2,0,0,1,16,56Zm32,0a2,2,0,1,1-2-2A2,2,0,0,1,48,56Zm-2-4H14c-4.45,0-8.65-7.64-9-16H55C54.65,44.36,50.45,52,46,52ZM57,34H3a1,1,0,0,1,0-2H57a1,1,0,0,1,0,2Z"/><path d="M49.82,20.34c-1-.86-2.94-1.75-6-1.13a1,1,0,1,0,.39,2,5.13,5.13,0,0,1,4.36.72A4.26,4.26,0,0,1,50,25.19a1,1,0,1,0,2,0A6.28,6.28,0,0,0,49.82,20.34Z"/><path d="M44.45,24.11a4.17,4.17,0,0,0-4.07.45c-1.1.68-2.38,2-2.38,3.45a1,1,0,0,0,2,0,2.81,2.81,0,0,1,1.43-1.74,2.29,2.29,0,0,1,2.12-.36,1,1,0,1,0,.89-1.79Z"/><path d="M28,23a1,1,0,0,0,0,2,2,2,0,0,1,2,2,1,1,0,0,0,2,0A4,4,0,0,0,28,23Z"/></g><text x="0" y="75" fill="#000000" font-size="5px" font-weight="bold" font-family="'Helvetica Neue', Helvetica, Arial-Unicode, Arial, Sans-serif">Created by Creaticca Creative Agency</text><text x="0" y="80" fill="#000000" font-size="5px" font-weight="bold" font-family="'Helvetica Neue', Helvetica, Arial-Unicode, Arial, Sans-serif">from the Noun Project</text></svg>