<svg xmlns="http://www.w3.org/2000/svg" xmlns:xlink="http://www.w3.org/1999/xlink" version="1.1" x="0px" y="0px" viewBox="0 0 100 125" enable-background="new 0 0 100 100" xml:space="preserve"><path fill="#000000" d="M95,79h-6V19c0-0.414-0.336-0.75-0.75-0.75h-22.5C65.336,18.25,65,18.586,65,19v33H39.5v-3.126l6.137-1.138  c0.407-0.074,0.676-0.467,0.601-0.873c-0.075-0.407-0.467-0.676-0.874-0.602L39.5,47.35V47c0-0.414-0.336-0.75-0.75-0.75h-9  C29.336,46.25,29,46.586,29,47v5H11.75C11.336,52,11,52.336,11,52.75V79H5c-0.414,0-0.75,0.336-0.75,0.75S4.586,80.5,5,80.5h90  c0.414,0,0.75-0.336,0.75-0.75S95.414,79,95,79z M66.5,53.5h21V79h-21V53.5z M87.5,19.75V52h-21V19.75H87.5z M65,74.5H50.75v-21H65  V74.5z M28.25,74.5v-12h21v12H28.25z M29.75,53.5h9h10.5V61h-21v-7.5H29.75z M30.5,47.75H38V52h-7.5V47.75z M26.75,53.5v21H12.5v-21  H26.75z M12.5,76H65v3H12.5V76z"/><path fill="#000000" d="M70.25,49c0.414,0,0.75-0.336,0.75-0.75V41.5c0-0.414-0.336-0.75-0.75-0.75s-0.75,0.336-0.75,0.75v6.75  C69.5,48.664,69.836,49,70.25,49z"/><path fill="#000000" d="M70.25,56.5c-0.414,0-0.75,0.336-0.75,0.75V64c0,0.414,0.336,0.75,0.75,0.75S71,64.414,71,64v-6.75  C71,56.836,70.664,56.5,70.25,56.5z"/><path fill="#000000" d="M27.5,37.75H50c0.414,0,0.75-0.336,0.75-0.75v-4.5c0-0.414-0.336-0.75-0.75-0.75h-6V19  c0-0.414-0.336-0.75-0.75-0.75h-9c-0.414,0-0.75,0.336-0.75,0.75v12.75h-6c-0.414,0-0.75,0.336-0.75,0.75V37  C26.75,37.414,27.086,37.75,27.5,37.75z M35,19.75h7.5v12H35V19.75z M28.25,33.25h21v3h-21V33.25z"/><path fill="#000000" d="M53.971,57.78C54.109,57.92,54.303,58,54.5,58s0.391-0.08,0.529-0.22c0.141-0.142,0.221-0.333,0.221-0.53  s-0.08-0.391-0.221-0.53c-0.279-0.28-0.781-0.28-1.061,0c-0.14,0.14-0.22,0.333-0.22,0.53S53.83,57.641,53.971,57.78z"/><path fill="#000000" d="M23,58c0.197,0,0.39-0.08,0.53-0.22c0.14-0.142,0.22-0.333,0.22-0.53s-0.08-0.391-0.22-0.53  c-0.277-0.28-0.78-0.28-1.06,0c-0.14,0.14-0.22,0.333-0.22,0.53s0.08,0.391,0.22,0.53C22.61,57.92,22.803,58,23,58z"/><path fill="#000000" d="M34.25,58h9c0.414,0,0.75-0.336,0.75-0.75s-0.336-0.75-0.75-0.75h-9c-0.414,0-0.75,0.336-0.75,0.75  S33.836,58,34.25,58z"/><path fill="#000000" d="M43.28,66.72c-0.293-0.293-0.768-0.293-1.061,0l-2.75,2.75c-0.293,0.294-0.293,0.769,0,1.062  c0.146,0.146,0.338,0.22,0.53,0.22s0.384-0.073,0.53-0.22l2.75-2.75C43.573,67.486,43.573,67.014,43.28,66.72z"/><path fill="#000000" d="M39.78,65.72c-0.293-0.293-0.768-0.293-1.061,0l-4.5,4.5c-0.293,0.294-0.293,0.769,0,1.062  c0.146,0.146,0.338,0.22,0.53,0.22s0.384-0.073,0.53-0.22l4.5-4.5C40.073,66.486,40.073,66.014,39.78,65.72z"/><text x="0" y="115" fill="#000000" font-size="5px" font-weight="bold" font-family="'Helvetica Neue', Helvetica, Arial-Unicode, Arial, Sans-serif">Created by Søren Michelsen</text><text x="0" y="120" fill="#000000" font-size="5px" font-weight="bold" font-family="'Helvetica Neue', Helvetica, Arial-Unicode, Arial, Sans-serif">from the Noun Project</text></svg>