<svg xmlns:dc="http://purl.org/dc/elements/1.1/" xmlns:cc="http://creativecommons.org/ns#" xmlns:rdf="http://www.w3.org/1999/02/22-rdf-syntax-ns#" xmlns:svg="http://www.w3.org/2000/svg" xmlns="http://www.w3.org/2000/svg" xmlns:sodipodi="http://sodipodi.sourceforge.net/DTD/sodipodi-0.dtd" xmlns:inkscape="http://www.inkscape.org/namespaces/inkscape" version="1.1" x="0px" y="0px" viewBox="0 0 128 160" enable-background="new 0 0 128 128" xml:space="preserve"><path d="M 89.5 2 L 89.5 18 L 94 18 L 94 71 L 89.5 71 L 89.5 87 L 93.800781 87 C 92.400781 95.6 84.9 102 76 102 C 67.1 102 59.700781 95.5 58.300781 87 L 62.5 87 L 62.5 71 L 57.900391 71 C 56.400391 49.9 39.2 33 18 32 L 18 28 L 2 28 L 2 61 L 18 61 L 18 56.099609 C 26 56.999609 32.399219 63.1 33.699219 71 L 29.5 71 L 29.5 87 L 34.099609 87 C 35.599609 108.8 53.8 126 76 126 C 98.3 126 116.40039 109 117.90039 87 L 122.5 87 L 122.5 71 L 118 71 L 118 18 L 122.5 18 L 122.5 2 L 89.5 2 z M 93.5 6 L 118.5 6 L 118.5 14 L 93.5 14 L 93.5 6 z M 98 18 L 107 18 L 107 32.099609 L 111 32.099609 L 111 18 L 114 18 L 114 71 L 98 71 L 98 18 z M 6 32 L 14 32 L 14 57 L 6 57 L 6 32 z M 18 36 C 37 37 52.400391 52.000391 53.900391 70.900391 L 37.800781 70.900391 C 36.400781 60.900391 28.2 52.999609 18 52.099609 L 18 36 z M 33.5 75 L 58.5 75 L 58.5 83 L 33.5 83 L 33.5 75 z M 93.5 75 L 118.5 75 L 118.5 83 L 93.5 83 L 93.5 75 z M 38.099609 87 L 54.199219 87 C 55.699219 97.7 64.9 106 76 106 C 87 106 96.300781 97.8 97.800781 87 L 113.90039 87 C 112.40039 106.7 96 122 76 122 C 56 122 39.599609 106.5 38.099609 87 z M 104.40039 96.300781 C 101.50039 103.70078 95.600781 109.70078 88.300781 112.80078 L 89.800781 116.5 C 98.100781 113 104.79961 106.10078 108.09961 97.800781 L 104.40039 96.300781 z "/><path stroke-miterlimit="10" d="M 16,34" style="" stroke="#3ebbc4" stroke-width="4"/><text x="0" y="143" fill="#000000" font-size="5px" font-weight="bold" font-family="'Helvetica Neue', Helvetica, Arial-Unicode, Arial, Sans-serif">Created by Kokota</text><text x="0" y="148" fill="#000000" font-size="5px" font-weight="bold" font-family="'Helvetica Neue', Helvetica, Arial-Unicode, Arial, Sans-serif">from the Noun Project</text></svg>