<svg xmlns="http://www.w3.org/2000/svg" data-name="Layer 1" viewBox="0 0 100 125" x="0px" y="0px"><title>04</title><path d="M55.5,7.16h-11a4,4,0,0,0-4,4V21.4L32.62,35.67a1,1,0,0,0,.88,1.48h33a1,1,0,0,0,.88-1.48L59.5,21.4V11.16A4,4,0,0,0,55.5,7.16Zm-13,4a2,2,0,0,1,2-2h11a2,2,0,0,1,2,2v9.5h-15Zm22.31,24H35.19l6.9-12.5H57.91Z"/><path d="M21.53,82.66h4.29a1,1,0,0,0,0-2H21.53a1,1,0,0,0,0,2Z"/><path d="M21.53,63.26h4.29a1,1,0,1,0,0-2H21.53a1,1,0,1,0,0,2Z"/><path d="M95.31,52.47a1,1,0,0,0,0-2H4.69a1,1,0,0,0,0,2h5.89V90.84H4.69a1,1,0,1,0,0,2H95.31a1,1,0,0,0,0-2H89.41V52.47ZM34.76,90.84H12.59V72.47H34.76Zm0-20.37H12.59v-18H34.76ZM63.24,90.84H36.76V52.47H63.24Zm24.17,0H65.24V72.47H87.41Zm0-20.37H65.24v-18H87.41Z"/><path d="M74.18,82.66h4.29a1,1,0,0,0,0-2H74.18a1,1,0,0,0,0,2Z"/><path d="M74.18,63.26h4.29a1,1,0,0,0,0-2H74.18a1,1,0,0,0,0,2Z"/><text x="0" y="115" fill="#000000" font-size="5px" font-weight="bold" font-family="'Helvetica Neue', Helvetica, Arial-Unicode, Arial, Sans-serif">Created by Rajive</text><text x="0" y="120" fill="#000000" font-size="5px" font-weight="bold" font-family="'Helvetica Neue', Helvetica, Arial-Unicode, Arial, Sans-serif">from the Noun Project</text></svg>