<svg xmlns:dc="http://purl.org/dc/elements/1.1/" xmlns:cc="http://creativecommons.org/ns#" xmlns:rdf="http://www.w3.org/1999/02/22-rdf-syntax-ns#" xmlns:svg="http://www.w3.org/2000/svg" xmlns="http://www.w3.org/2000/svg" xmlns:sodipodi="http://sodipodi.sourceforge.net/DTD/sodipodi-0.dtd" xmlns:inkscape="http://www.inkscape.org/namespaces/inkscape" viewBox="0 0 99.999997 124.99999625" version="1.1" x="0px" y="0px"><g transform="translate(0,-952.36223)"><path style="color:#000000;font-style:normal;font-variant:normal;font-weight:normal;font-stretch:normal;font-size:medium;line-height:normal;font-family:sans-serif;text-indent:0;text-align:start;text-decoration:none;text-decoration-line:none;text-decoration-style:solid;text-decoration-color:#000000;letter-spacing:normal;word-spacing:normal;text-transform:none;direction:ltr;block-progression:tb;writing-mode:lr-tb;baseline-shift:baseline;text-anchor:start;white-space:normal;clip-rule:nonzero;display:inline;overflow:visible;visibility:visible;opacity:1;isolation:auto;mix-blend-mode:normal;color-interpolation:sRGB;color-interpolation-filters:linearRGB;solid-color:#000000;solid-opacity:1;fill:#000000;fill-opacity:1;fill-rule:evenodd;stroke:none;stroke-width:5;stroke-linecap:round;stroke-linejoin:round;stroke-miterlimit:4;stroke-dasharray:none;stroke-dashoffset:0;stroke-opacity:1;color-rendering:auto;image-rendering:auto;shape-rendering:auto;text-rendering:auto;enable-background:accumulate" d="M 49.962891 58.03125 A 2.50025 2.50025 0 0 0 47.5 60.566406 L 47.5 81.107422 L 41.003906 74.611328 A 2.50025 2.50025 0 0 0 39.210938 73.853516 A 2.50025 2.50025 0 0 0 37.46875 78.146484 L 47.880859 88.558594 A 2.50025 2.50025 0 0 0 49.914062 89.673828 A 2.50025 2.50025 0 0 0 49.957031 89.673828 A 2.50025 2.50025 0 0 0 49.992188 89.675781 A 2.50025 2.50025 0 0 0 50.037109 89.677734 A 2.50025 2.50025 0 0 0 50.068359 89.675781 A 2.50025 2.50025 0 0 0 52.117188 88.560547 L 62.53125 78.146484 A 2.50025 2.50025 0 0 0 60.714844 73.855469 A 2.50025 2.50025 0 0 0 58.996094 74.611328 L 52.5 81.107422 L 52.5 60.566406 A 2.50025 2.50025 0 0 0 49.962891 58.03125 z " transform="translate(0,952.36223)"/><path style="color:#000000;font-style:normal;font-variant:normal;font-weight:normal;font-stretch:normal;font-size:medium;line-height:normal;font-family:sans-serif;text-indent:0;text-align:start;text-decoration:none;text-decoration-line:none;text-decoration-style:solid;text-decoration-color:#000000;letter-spacing:normal;word-spacing:normal;text-transform:none;direction:ltr;block-progression:tb;writing-mode:lr-tb;baseline-shift:baseline;text-anchor:start;white-space:normal;clip-rule:nonzero;display:inline;overflow:visible;visibility:visible;opacity:1;isolation:auto;mix-blend-mode:normal;color-interpolation:sRGB;color-interpolation-filters:linearRGB;solid-color:#000000;solid-opacity:1;fill:#000000;fill-opacity:1;fill-rule:evenodd;stroke:none;stroke-width:5;stroke-linecap:round;stroke-linejoin:round;stroke-miterlimit:4;stroke-dasharray:none;stroke-dashoffset:0;stroke-opacity:1;color-rendering:auto;image-rendering:auto;shape-rendering:auto;text-rendering:auto;enable-background:accumulate" d="M 49.962891 10.324219 A 2.50025 2.50025 0 0 0 49.011719 10.527344 A 2.50025 2.50025 0 0 0 49.001953 10.53125 A 2.50025 2.50025 0 0 0 48.964844 10.548828 A 2.50025 2.50025 0 0 0 47.943359 11.380859 L 37.46875 21.855469 A 2.50025 2.50025 0 1 0 41.003906 25.390625 L 47.5 18.894531 L 47.5 39.435547 A 2.50025 2.50025 0 1 0 52.5 39.435547 L 52.5 18.894531 L 58.996094 25.390625 A 2.50025 2.50025 0 1 0 62.53125 21.855469 L 52.054688 11.378906 A 2.50025 2.50025 0 0 0 51.166016 10.611328 A 2.50025 2.50025 0 0 0 51.15625 10.605469 A 2.50025 2.50025 0 0 0 51.09375 10.578125 A 2.50025 2.50025 0 0 0 49.962891 10.324219 z " transform="translate(0,952.36223)"/><path style="color:#000000;font-style:normal;font-variant:normal;font-weight:normal;font-stretch:normal;font-size:medium;line-height:normal;font-family:sans-serif;text-indent:0;text-align:start;text-decoration:none;text-decoration-line:none;text-decoration-style:solid;text-decoration-color:#000000;letter-spacing:normal;word-spacing:normal;text-transform:none;direction:ltr;block-progression:tb;writing-mode:lr-tb;baseline-shift:baseline;text-anchor:start;white-space:normal;clip-rule:nonzero;display:inline;overflow:visible;visibility:visible;opacity:1;isolation:auto;mix-blend-mode:normal;color-interpolation:sRGB;color-interpolation-filters:linearRGB;solid-color:#000000;solid-opacity:1;fill:#000000;fill-opacity:1;fill-rule:evenodd;stroke:none;stroke-width:7.5;stroke-linecap:round;stroke-linejoin:round;stroke-miterlimit:4;stroke-dasharray:none;stroke-dashoffset:0;stroke-opacity:1;color-rendering:auto;image-rendering:auto;shape-rendering:auto;text-rendering:auto;enable-background:accumulate" d="m 14.166016,998.61133 a 3.750375,3.750375 0 1 0 0,7.49997 l 71.667968,0 a 3.750375,3.750375 0 1 0 0,-7.49997 l -71.667968,0 z"/></g><text x="0" y="114.999997" fill="#000000" font-size="5px" font-weight="bold" font-family="'Helvetica Neue', Helvetica, Arial-Unicode, Arial, Sans-serif">Created by Mateusz Kowalewski</text><text x="0" y="119.999997" fill="#000000" font-size="5px" font-weight="bold" font-family="'Helvetica Neue', Helvetica, Arial-Unicode, Arial, Sans-serif">from the Noun Project</text></svg>