<svg xmlns="http://www.w3.org/2000/svg" xmlns:xlink="http://www.w3.org/1999/xlink" version="1.1" x="0px" y="0px" viewBox="0 0 100 125" style="enable-background:new 0 0 100 100;" xml:space="preserve"><style type="text/css">
	.st0{fill:none;stroke:#000000;stroke-width:2;stroke-linecap:round;stroke-linejoin:round;stroke-miterlimit:10;}
</style><path d="M89.125,19.63H83.75v-5.832c0-2.16-1.757-3.917-3.917-3.917H17.67c-2.159,0-3.916,1.757-3.916,3.917v2.457h-1.276  c-1.341,0-2.353,1.41-2.353,3.28v1.814c0,1.87,1.012,3.28,2.353,3.28h1.276v2.833c0,2.16,1.757,3.917,3.916,3.917h62.163  c2.16,0,3.917-1.757,3.917-3.917V21.63h4.375v16.035L49.802,50.767c-0.405,0.139-0.677,0.519-0.677,0.946v5.667h-4.439  c-0.532,0-0.971,0.416-0.999,0.947l-1.26,24.069c0,4.176,3.397,7.572,7.573,7.572s7.573-3.396,7.572-7.625l-1.259-24.017  c-0.028-0.531-0.467-0.947-0.999-0.947h-4.189v-4.952l38.323-13.102c0.405-0.139,0.677-0.519,0.677-0.946V20.63  C90.125,20.077,89.678,19.63,89.125,19.63z M12.54,22.642c-0.122-0.064-0.415-0.527-0.415-1.292v-1.814  c0-0.765,0.293-1.228,0.353-1.28h1.276v4.379L12.54,22.642z M81.75,27.463c0,1.057-0.86,1.917-1.917,1.917H17.67  c-1.057,0-1.916-0.86-1.916-1.917V13.798c0-1.057,0.859-1.917,1.916-1.917h62.163c1.057,0,1.917,0.86,1.917,1.917V27.463z   M55.573,82.396c0,3.072-2.5,5.572-5.573,5.572s-5.573-2.5-5.574-5.52l1.209-23.069h8.73L55.573,82.396z"/><text x="0" y="115" fill="#000000" font-size="5px" font-weight="bold" font-family="'Helvetica Neue', Helvetica, Arial-Unicode, Arial, Sans-serif">Created by Made</text><text x="0" y="120" fill="#000000" font-size="5px" font-weight="bold" font-family="'Helvetica Neue', Helvetica, Arial-Unicode, Arial, Sans-serif">from the Noun Project</text></svg>