<svg xmlns:x="http://ns.adobe.com/Extensibility/1.0/" xmlns:i="http://ns.adobe.com/AdobeIllustrator/10.0/" xmlns:graph="http://ns.adobe.com/Graphs/1.0/" xmlns="http://www.w3.org/2000/svg" xmlns:xlink="http://www.w3.org/1999/xlink" xmlns:a="http://ns.adobe.com/AdobeSVGViewerExtensions/3.0/" version="1.1" x="0px" y="0px" viewBox="0 0 100 125" enable-background="new 0 0 100 100" xml:space="preserve"><path d="M68.727,11.712c-15.038,0-27.272,12.235-27.272,27.274c0,2.894,0.454,5.734,1.352,8.467  c-1.127,0.866-2.195,1.801-3.195,2.797l-10.629-6.772c-0.903-0.574-2.099-0.338-2.713,0.54l-5.637,8.052  c-0.313,0.447-0.43,1.001-0.324,1.536c0.106,0.535,0.426,1.003,0.886,1.296L32.09,61.86c-1.42,3.728-2.138,7.645-2.138,11.669  v12.759c0,1.104,0.896,2,2,2H93.73c1.104,0,2-0.896,2-2V73.529c0-6.445-1.847-12.63-5.355-17.983C94.013,50.798,96,44.977,96,38.986  C96,23.947,83.766,11.712,68.727,11.712z M86.363,54.143c-0.604,0.702-0.647,1.727-0.104,2.477  c3.58,4.947,5.472,10.794,5.472,16.909v10.759H33.952V73.529c0-4.042,0.825-7.961,2.452-11.648c0,0,0-0.001,0-0.001  c0.372-0.843,0.791-1.681,1.245-2.489c0.541-0.963,0.199-2.183-0.764-2.724c-0.964-0.54-2.183-0.198-2.724,0.764  c-0.139,0.247-0.267,0.501-0.399,0.752l-8.658-5.528l3.342-4.774l10.402,6.627c0.823,0.524,1.904,0.378,2.559-0.346  c1.459-1.615,3.118-3.075,4.931-4.339c0.758-0.529,1.055-1.51,0.717-2.371c-1.062-2.708-1.601-5.556-1.601-8.466  c0-12.833,10.44-23.274,23.272-23.274S92,26.152,92,38.986C92,44.537,89.998,49.92,86.363,54.143z"/><path d="M83.568,48c-5.837-4.746-13.198-7.36-20.728-7.36c-3.998,0-7.91,0.714-11.628,2.123c-1.033,0.391-1.553,1.546-1.162,2.579  c0.391,1.033,1.545,1.553,2.579,1.162c3.264-1.236,6.7-1.863,10.211-1.863c6.613,0,13.078,2.295,18.204,6.463  c0.371,0.302,0.817,0.448,1.261,0.448c0.581,0,1.158-0.252,1.553-0.738C84.555,49.956,84.425,48.696,83.568,48z"/><path d="M10.723,53.443c0.641,0,1.292-0.1,1.933-0.31c0.788-0.258,1.216-1.105,0.958-1.893c-0.259-0.788-1.109-1.217-1.893-0.958  c-1.686,0.551-3.507-0.368-4.06-2.053c-0.553-1.686,0.368-3.507,2.054-4.061c0.326-0.107,0.68-0.149,1.04-0.157  c0.538,0.031,1.019-0.268,1.293-0.719c0.275-0.45,0.293-1.012,0.048-1.479c-0.13-0.249-0.243-0.516-0.334-0.79  c-0.438-1.336-0.331-2.764,0.305-4.02c0.635-1.256,1.721-2.189,3.058-2.627c1.336-0.439,2.763-0.331,4.02,0.304  c1.255,0.635,2.188,1.721,2.626,3.058c0.258,0.787,1.107,1.214,1.893,0.958c0.787-0.258,1.216-1.106,0.958-1.893  c-0.688-2.098-2.153-3.802-4.123-4.799c-1.971-0.998-4.211-1.167-6.309-0.478c-2.098,0.688-3.803,2.153-4.8,4.124  c-0.897,1.775-1.125,3.769-0.657,5.683c-3.228,1.087-4.986,4.589-3.922,7.831C5.67,51.781,8.109,53.444,10.723,53.443z"/><path d="M19.737,48.638l-5.223-2.849c-0.071-0.038-0.153-0.075-0.231-0.102c-0.786-0.271-1.643,0.148-1.913,0.934  c-0.271,0.786,0.147,1.643,0.934,1.913l5.626,1.934c0.455,0.157,0.969-0.032,1.207-0.468C20.403,49.513,20.224,48.903,19.737,48.638  z"/><path d="M23.436,45.278c0.384-0.399,0.372-1.035-0.028-1.419l-4.305-4.141c-0.058-0.055-0.127-0.112-0.195-0.159  c-0.687-0.468-1.624-0.291-2.092,0.396c-0.469,0.687-0.292,1.624,0.396,2.092l4.936,3.366  C22.544,45.683,23.091,45.636,23.436,45.278z"/></svg>