<svg xmlns="http://www.w3.org/2000/svg" xmlns:xlink="http://www.w3.org/1999/xlink" version="1.1" x="0px" y="0px" viewBox="0 0 100 125" enable-background="new 0 0 100 100" xml:space="preserve"><g><path fill="none" stroke="#000000" stroke-width="3" stroke-linecap="round" stroke-linejoin="round" stroke-miterlimit="10" d="   M35.411,93.5h-9.325c-2.117,0-3.833-1.716-3.833-3.833V62.181c0-2.117,1.716-3.833,3.833-3.833h9.325   c2.117,0,3.833,1.716,3.833,3.833v27.486C39.244,91.784,37.528,93.5,35.411,93.5z"/><path fill="none" stroke="#000000" stroke-width="3" stroke-linecap="round" stroke-linejoin="round" stroke-miterlimit="10" d="   M36.367,58.348H25.131v-2.879c0-1.565,1.269-2.833,2.833-2.833h5.569c1.565,0,2.833,1.269,2.833,2.833V58.348z"/><line fill="none" stroke="#000000" stroke-width="3" stroke-linecap="round" stroke-linejoin="round" stroke-miterlimit="10" x1="32.534" y1="6.5" x2="28.963" y2="6.5"/><polyline fill="none" stroke="#000000" stroke-width="3" stroke-linecap="round" stroke-linejoin="round" stroke-miterlimit="10" points="   33.075,20.559 33.075,52.638 28.422,52.638 28.422,20.559  "/><polyline fill="none" stroke="#000000" stroke-width="3" stroke-linecap="round" stroke-linejoin="round" stroke-miterlimit="10" points="   33.075,20.559 36.298,17.758 33.075,6.5 28.422,6.5 25.199,17.758 28.422,20.559  "/><g><path fill="none" stroke="#000000" stroke-width="3" stroke-linecap="round" stroke-linejoin="round" stroke-miterlimit="10" d="    M59.296,30.312c-4.717-1.992-8.029-6.661-8.029-12.104c0-5.113,2.922-9.541,7.189-11.708"/><path fill="none" stroke="#000000" stroke-width="3" stroke-linecap="round" stroke-linejoin="round" stroke-miterlimit="10" d="    M70.331,6.5c4.267,2.16,7.189,6.595,7.189,11.708c0,5.437-3.307,10.106-8.023,12.098"/><path fill="none" stroke="#000000" stroke-width="3" stroke-linecap="round" stroke-linejoin="round" stroke-miterlimit="10" d="    M70.331,6.5v7.861c0,2.196-1.776,3.973-3.967,3.973h-3.943c-2.19,0-3.967-1.776-3.967-3.973V6.5"/><path fill="none" stroke="#000000" stroke-width="3" stroke-linecap="round" stroke-linejoin="round" stroke-miterlimit="10" d="    M59.296,30.312l-0.012,58.086c-0.001,2.817,2.283,5.102,5.101,5.102h0c2.817,0,5.1-2.281,5.101-5.098    c0.003-15.03,0.012-58.096,0.012-58.096"/></g></g><text x="0" y="115" fill="#000000" font-size="5px" font-weight="bold" font-family="'Helvetica Neue', Helvetica, Arial-Unicode, Arial, Sans-serif">Created by Maxim Kulikov</text><text x="0" y="120" fill="#000000" font-size="5px" font-weight="bold" font-family="'Helvetica Neue', Helvetica, Arial-Unicode, Arial, Sans-serif">from the Noun Project</text></svg>